<svg width="220" height="44" viewBox="0 0 220 44" fill="none" xmlns="http://www.w3.org/2000/svg">
  <!-- Shield icon -->
  <path d="M22 2L6 9v11c0 10.5 6.8 20.3 16 23 9.2-2.7 16-12.5 16-23V9L22 2z" fill="#0F2B5B"/>
  <path d="M22 6L10 11.5v8.5c0 8.2 5.1 15.8 12 17.9 6.9-2.1 12-9.7 12-17.9v-8.5L22 6z" fill="#0F2B5B" stroke="#00BFA6" stroke-width="1.5"/>
  <!-- EU stars circle inside shield -->
  <g fill="#00BFA6">
    <circle cx="22" cy="14" r="1.2"/>
    <circle cx="26" cy="15.2" r="1.2"/>
    <circle cx="28" cy="19" r="1.2"/>
    <circle cx="26" cy="22.8" r="1.2"/>
    <circle cx="22" cy="24" r="1.2"/>
    <circle cx="18" cy="22.8" r="1.2"/>
    <circle cx="16" cy="19" r="1.2"/>
    <circle cx="18" cy="15.2" r="1.2"/>
  </g>
  <!-- Checkmark in center -->
  <path d="M18.5 19l2.5 2.5 5-5" stroke="#00BFA6" stroke-width="2" stroke-linecap="round" stroke-linejoin="round" fill="none"/>
  <!-- Wordmark -->
  <text x="50" y="30" font-family="Inter, -apple-system, BlinkMacSystemFont, 'Segoe UI', Helvetica, Arial, sans-serif" font-size="24" font-weight="700" fill="#0F2B5B" letter-spacing="-0.5">
    EUDI<tspan font-weight="400" fill="#00BFA6">Stack</tspan>
  </text>
</svg>
