<svg width="32" height="32" viewBox="0 0 32 32" fill="none" xmlns="http://www.w3.org/2000/svg">
  <!-- Shield background -->
  <path d="M16 1L3 6.5v8.5c0 8.8 5.5 17 13 19 7.5-2 13-10.2 13-19V6.5L16 1z" fill="#0F2B5B"/>
  <path d="M16 4.5L6 9v6.5c0 6.8 4.2 13.1 10 14.8 5.8-1.7 10-8 10-14.8V9L16 4.5z" fill="#0F2B5B" stroke="#00BFA6" stroke-width="1.2"/>
  <!-- EU stars -->
  <g fill="#00BFA6">
    <circle cx="16" cy="10" r="1"/>
    <circle cx="19.5" cy="11" r="1"/>
    <circle cx="21" cy="14.5" r="1"/>
    <circle cx="19.5" cy="18" r="1"/>
    <circle cx="16" cy="19" r="1"/>
    <circle cx="12.5" cy="18" r="1"/>
    <circle cx="11" cy="14.5" r="1"/>
    <circle cx="12.5" cy="11" r="1"/>
  </g>
  <!-- Checkmark -->
  <path d="M13 14.5l2 2 4-4" stroke="#00BFA6" stroke-width="1.8" stroke-linecap="round" stroke-linejoin="round" fill="none"/>
</svg>
